<svg data-v-16bc8e0b="" version="1.0" xmlns="http://www.w3.org/2000/svg" width="100%" height="100%" viewBox="0 0 340.000000 250.000000" preserveAspectRatio="xMidYMid meet" color-interpolation-filters="sRGB" class="el-tooltip" style="margin: auto;"><rect data-v-16bc8e0b="" x="0" y="0" width="100%" height="100%" fill="#fff" fill-opacity="1"></rect> <rect data-v-16bc8e0b="" x="0" y="0" width="100%" height="100%" fill="url(#watermark)" fill-opacity="1" class="watermarklayer"></rect> <g data-v-16bc8e0b="" fill="#0083ce" transform="translate(123,71.56283950805664)"><g transform="translate(19.926740646362305,0)"><rect fill="#0083ce" fill-opacity="0" x="0" y="0" width="54.087912087912" height="60"></rect> <svg x="0" y="0" width="54.087912087912" height="60"><svg xmlns="http://www.w3.org/2000/svg" viewBox="0 0 73.83 81.9"><g><path d="M67.05 46V35.88A10.78 10.78 0 1 0 56.37 17.4l-8.79-5.07a11.38 11.38 0 0 0 .12-1.55 10.78 10.78 0 1 0-21.56 0 11.31 11.31 0 0 0 .1 1.55l-8.78 5.07A10.78 10.78 0 1 0 6.79 35.88V46a10.77 10.77 0 0 0 4 20.79 10 10 0 0 0 6.57-2.24l8.89 5a11.32 11.32 0 0 0-.1 1.55 10.78 10.78 0 1 0 21.56 0 11.39 11.39 0 0 0-.12-1.55l8.79-5.09A10.78 10.78 0 1 0 67.05 46zM40.91 20.79a10.71 10.71 0 0 0 2.69-1.56l8.79 5.09a9 9 0 0 0-.12 1.55 9.23 9.23 0 0 0 .12 1.56l-8.79 5.06a11.27 11.27 0 0 0-2.69-1.56zm1.63 19.62a5.16 5.16 0 1 1-5.16-5.16 5.16 5.16 0 0 1 5.16 5.16zM36.91 6.84A3.94 3.94 0 1 1 33 10.78a3.94 3.94 0 0 1 3.91-3.94zM21.45 24.31l8.79-5.09a10.3 10.3 0 0 0 2.68 1.56v10.15a10.82 10.82 0 0 0-2.68 1.56l-8.79-5.07a11.41 11.41 0 0 0 .11-1.56 11.15 11.15 0 0 0-.11-1.55zM10.79 60a3.95 3.95 0 1 1 3.94-4 3.94 3.94 0 0 1-3.94 4zm0-30.18a3.94 3.94 0 1 1 3.94-3.94 3.93 3.93 0 0 1-3.94 3.92zm4 16.22V35.88a11.13 11.13 0 0 0 2.67-1.56l8.79 5.07a11.56 11.56 0 0 0-.1 1.56 11.3 11.3 0 0 0 .1 1.55l-8.79 5.09A10.67 10.67 0 0 0 14.78 46zm18.13 15.07a10.25 10.25 0 0 0-2.68 1.54l-8.79-5.07a11.5 11.5 0 0 0 0-3.11l8.79-5.07a10.23 10.23 0 0 0 2.68 1.6zm4 13.95a3.94 3.94 0 1 1 3.94-3.94 3.94 3.94 0 0 1-3.95 3.94zm15.47-17.47l-8.79 5.06a10.66 10.66 0 0 0-2.69-1.54V51a10.63 10.63 0 0 0 2.69-1.55l8.79 5.07a10 10 0 0 0 0 3.11zM59.06 46a10.74 10.74 0 0 0-2.69 1.56l-8.79-5.09a11.37 11.37 0 0 0 .12-1.55 11.64 11.64 0 0 0-.12-1.56l8.79-5.07a11.21 11.21 0 0 0 2.69 1.56zm4 14A3.95 3.95 0 1 1 67 56a3.94 3.94 0 0 1-3.94 4zm0-30.18A3.94 3.94 0 1 1 67 25.86a3.93 3.93 0 0 1-3.94 3.94z" fill="#0083ce"></path></g></svg></svg> <!----></g> <g transform="translate(0,67.00667953491211)"><g><g><path transform="translate(-2.64,26.64)" d="M8.88 0.92L11.20 0.92L11.20 2.36L2.64 2.36L2.64 0.92L4.92 0.92L4.92-24.52L2.64-24.52L2.64-25.96L14.32-25.96L14.32-25.96Q16.20-25.96 17.84-25.54L17.84-25.54L17.84-25.54Q19.48-25.12 20.72-24.20L20.72-24.20L20.72-24.20Q21.96-23.28 22.66-21.84L22.66-21.84L22.66-21.84Q23.36-20.40 23.36-18.36L23.36-18.36L23.36-18.36Q23.36-16.40 22.66-14.94L22.66-14.94L22.66-14.94Q21.96-13.48 20.76-12.52L20.76-12.52L20.76-12.52Q19.56-11.56 17.92-11.08L17.92-11.08L17.92-11.08Q16.28-10.60 14.40-10.60L14.40-10.60L8.88-10.60L8.88 0.92ZM8.88-12.04L13.64-12.04L13.64-12.04Q16.76-12.04 18.04-13.66L18.04-13.66L18.04-13.66Q19.32-15.28 19.32-18.20L19.32-18.20L19.32-18.20Q19.32-20 19.02-21.22L19.02-21.22L19.02-21.22Q18.72-22.44 18.02-23.16L18.02-23.16L18.02-23.16Q17.32-23.88 16.18-24.20L16.18-24.20L16.18-24.20Q15.04-24.52 13.36-24.52L13.36-24.52L8.88-24.52L8.88-12.04ZM29.76 12.84L29.76 12.84L29.76 12.84Q28.96 12.48 28.54 11.98L28.54 11.98L28.54 11.98Q28.12 11.48 27.96 10.94L27.96 10.94L27.96 10.94Q27.80 10.40 27.92 9.88L27.92 9.88L27.92 9.88Q28.04 9.36 28.32 9L28.32 9L28.32 9Q28.72 8.52 29.20 8.32L29.20 8.32L29.20 8.32Q29.68 8.12 30.16 8.18L30.16 8.18L30.16 8.18Q30.64 8.24 31.06 8.56L31.06 8.56L31.06 8.56Q31.48 8.88 31.76 9.44L31.76 9.44L31.76 9.44Q32.16 10.32 32.58 10.56L32.58 10.56L32.58 10.56Q33 10.80 33.38 10.62L33.38 10.62L33.38 10.62Q33.76 10.44 34.06 9.98L34.06 9.98L34.06 9.98Q34.36 9.52 34.56 8.96L34.56 8.96L36.32 4.36L29.68-13.04L27.44-13.04L27.44-14.48L36-14.48L36-13.04L33.88-13.04L38.28-0.80L43-13.04L41.04-13.04L41.04-14.48L46.56-14.48L46.56-13.04L44.64-13.04L36.04 9.24L36.04 9.24Q35.48 10.68 34.76 11.56L34.76 11.56L34.76 11.56Q34.04 12.44 33.20 12.84L33.20 12.84L33.20 12.84Q32.36 13.24 31.48 13.22L31.48 13.22L31.48 13.22Q30.60 13.20 29.76 12.84ZM51.84 0.80L51.84-22.68L51.84-22.68Q51.84-22.84 51.78-23.02L51.78-23.02L51.78-23.02Q51.72-23.20 51.64-23.20L51.64-23.20L50.84-23.60L50.84-23.60Q50.40-23.80 50.40-24.26L50.40-24.26L50.40-24.26Q50.40-24.72 51.04-24.80L51.04-24.80L51.04-24.80Q52.56-25 53.66-25.48L53.66-25.48L53.66-25.48Q54.76-25.96 55.68-26.64L55.68-26.64L55.68 0.80L57.20 0.80L57.20 2.24L50.28 2.24L50.28 0.80L51.84 0.80ZM75.28-6.16L75.28-6.16L75.28-6.16Q75.28-4.16 74.78-2.48L74.78-2.48L74.78-2.48Q74.28-0.80 73.34 0.40L73.34 0.40L73.34 0.40Q72.40 1.60 71 2.28L71 2.28L71 2.28Q69.60 2.96 67.80 2.96L67.80 2.96L67.80 2.96Q66 2.96 64.62 2.26L64.62 2.26L64.62 2.26Q63.24 1.56 62.28 0.32L62.28 0.32L62.28 0.32Q61.32-0.92 60.84-2.58L60.84-2.58L60.84-2.58Q60.36-4.24 60.36-6.16L60.36-6.16L60.36-6.16Q60.36-8.08 60.86-9.74L60.86-9.74L60.86-9.74Q61.36-11.40 62.32-12.62L62.32-12.62L62.32-12.62Q63.28-13.84 64.66-14.56L64.66-14.56L64.66-14.56Q66.04-15.28 67.80-15.28L67.80-15.28L67.80-15.28Q69.60-15.28 70.98-14.56L70.98-14.56L70.98-14.56Q72.36-13.84 73.32-12.62L73.32-12.62L73.32-12.62Q74.28-11.40 74.78-9.74L74.78-9.74L74.78-9.74Q75.28-8.08 75.28-6.16ZM64-6L64-6L64-6Q64-5.20 64.14-3.90L64.14-3.90L64.14-3.90Q64.28-2.60 64.70-1.36L64.70-1.36L64.70-1.36Q65.12-0.12 65.86 0.78L65.86 0.78L65.86 0.78Q66.60 1.68 67.80 1.68L67.80 1.68L67.80 1.68Q69.04 1.68 69.78 0.80L69.78 0.80L69.78 0.80Q70.52-0.08 70.92-1.30L70.92-1.30L70.92-1.30Q71.32-2.52 71.46-3.82L71.46-3.82L71.46-3.82Q71.60-5.12 71.60-6L71.60-6L71.60-6Q71.60-6.84 71.46-8.18L71.46-8.18L71.46-8.18Q71.32-9.52 70.90-10.82L70.90-10.82L70.90-10.82Q70.48-12.12 69.74-13.06L69.74-13.06L69.74-13.06Q69-14 67.80-14L67.80-14L67.80-14Q66.60-14 65.84-13.04L65.84-13.04L65.84-13.04Q65.08-12.08 64.68-10.78L64.68-10.78L64.68-10.78Q64.28-9.48 64.14-8.14L64.14-8.14L64.14-8.14Q64-6.80 64-6ZM80.96 1.36L80.96-12.08L80.96-12.08Q80.96-12.24 80.90-12.40L80.90-12.40L80.90-12.40Q80.84-12.56 80.72-12.60L80.72-12.60L79.96-13L79.96-13Q79.52-13.16 79.50-13.64L79.50-13.64L79.50-13.64Q79.48-14.12 80.12-14.20L80.12-14.20L80.12-14.20Q81.68-14.40 82.80-14.88L82.80-14.88L82.80-14.88Q83.92-15.36 84.80-16.04L84.80-16.04L84.80-12.76L84.80-12.76Q85.96-14.08 87.38-14.70L87.38-14.70L87.38-14.70Q88.80-15.32 90.76-15.32L90.76-15.32L90.76-15.32Q91.52-15.32 92.30-15.02L92.30-15.02L92.30-15.02Q93.08-14.72 93.70-14.06L93.70-14.06L93.70-14.06Q94.32-13.40 94.70-12.32L94.70-12.32L94.70-12.32Q95.08-11.24 95.08-9.68L95.08-9.68L95.08 1.36L96.64 1.36L96.64 2.80L89.68 2.80L89.68 1.36L91.20 1.36L91.20-10.04L91.20-10.04Q91.20-11.80 90.54-12.70L90.54-12.70L90.54-12.70Q89.88-13.60 88.92-13.70L88.92-13.70L88.92-13.70Q87.96-13.80 86.84-13.18L86.84-13.18L86.84-13.18Q85.72-12.56 84.80-11.32L84.80-11.32L84.80 1.36L86.36 1.36L86.36 2.80L79.40 2.80L79.40 1.36L80.96 1.36Z"></path></g> <!----></g> <!----></g></g></svg>